/* XPM */
static char * char_d_xpm[] = {
"64 64 4 1",
" 	c None",
".	c #454545",
"+	c #525252",
"@	c #EF4A77",
"...............................................................+",
"...............................................................+",
"...............................................................+",
"...............................................................+",
"...............................................................+",
"...............................................................+",
"...............................................................+",
"...............................................................+",
"...............................................................+",
"...............................................................+",
"...............................................................+",
".............................@@@@..............................+",
"...........................@@@..@@@............................+",
".........................@@@......@@@..........................+",
".......................@@@..........@@@........................+",
".....................@@@..............@@@......................+",
"...................@@@..................@@@....................+",
".................@@@......................@@@..................+",
"...............@@@..........................@@@................+",
".............@@@..............................@@@..............+",
"...........@@@..................................@@@............+",
"...........@@@@@@@@@@@@@@@@@@@@@@@@@@@@@@@@@@@@@@@@............+",
"...................@......................@....................+",
"...................@......................@....................+",
"...................@......................@....................+",
"...................@......................@....................+",
"...................@.....@..........@.....@....................+",
"...................@....@.@........@.@....@....................+",
"...................@....@.@........@.@....@....................+",
"...................@....@.@........@.@....@....................+",
"...................@.....@..........@.....@....................+",
"...................@......................@....................+",
"...................@......................@....................+",
"...................@......................@....................+",
"...................@......................@....................+",
"...................@......................@....................+",
"...................@......@........@......@....................+",
"...................@.......@......@.......@....................+",
"...................@........@@@@@@........@....................+",
"...................@......................@....................+",
"...................@......................@....................+",
"...................@......................@....................+",
"...................@@@@@@@@@@@@@@@@@@@@@@@@....................+",
".........................@..........@..........................+",
".........................@..........@..........................+",
".........................@..........@..........................+",
".........................@..........@..........................+",
".........................@..........@..........................+",
".........................@..........@..........................+",
".........................@..........@..........................+",
".........................@..........@..........................+",
".........................@..........@..........................+",
".........................@..........@..........................+",
"...............................................................+",
"...............................................................+",
"...............................................................+",
"...............................................................+",
"...............................................................+",
"...............................................................+",
"...............................................................+",
"...............................................................+",
"...............................................................+",
"...............................................................+",
"++++++++++++++++++++++++++++++++++++++++++++++++++++++++++++++++"};
