/* XPM */
static char * exit_xpm[] = {
"64 64 32 1",
" 	c None",
".	c #454545",
"+	c #525252",
"@	c #474545",
"#	c #7C4651",
"$	c #9A4759",
"%	c #AF4760",
"&	c #C04866",
"*	c #CE486B",
"=	c #D8496E",
"-	c #E04971",
";	c #E64A74",
">	c #EA4A75",
",	c #ED4A76",
"'	c #EF4A77",
")	c #66454B",
"!	c #9C475A",
"~	c #BF4865",
"{	c #EC4A76",
"]	c #6B464C",
"^	c #AB475F",
"/	c #D3496D",
"(	c #854653",
"_	c #C34867",
":	c #6C464D",
"<	c #BE4865",
"[	c #904656",
"}	c #D6496E",
"|	c #7D4651",
"1	c #D9496F",
"2	c #C54867",
"3	c #E84A74",
"...............................................................+",
"...............................................................+",
"...............................................................+",
"...............................................................+",
"...............................................................+",
"...............................................................+",
"...............................................................+",
"...............................................................+",
"...............................................................+",
"...............................................................+",
"...............................................................+",
"...............................................................+",
"...............................................................+",
"...............................................................+",
"...............................................................+",
"...............................................................+",
"...............................................................+",
"...............................................................+",
"...............................................................+",
"...............................................................+",
"...............................................................+",
"...............................................................+",
"...............................................................+",
"...............................................................+",
"...................@#$%&*=-;>,'',>;-=*&%$#@....................+",
"...............)!~={''''''''''''''''''''''{=~!)................+",
"............]^/''''''''''''''''''''''''''''''''/^].............+",
"..........(_{''''''''''''''''''''''''''''''''''''{_(...........+",
"........:<''''''''''''''''''''''''''''''''''''''''''<:.........+",
".......[}''''''''''''''''''''''''''''''''''''''''''''}[........+",
"......|1''''''''''''''''''''''''''''''''''''''''''''''1|.......+",
"......2''''''''''''''''''''''''''''''''''''''''''''''''2.......+",
"......3''''''''''''''''''''''''''''''''''''''''''''''''3.......+",
"......3''''''''''''''''''''''''''''''''''''''''''''''''3.......+",
"......2''''''''''''''''''''''''''''''''''''''''''''''''2.......+",
"......|1''''''''''''''''''''''''''''''''''''''''''''''1|.......+",
".......[}''''''''''''''''''''''''''''''''''''''''''''}[........+",
"........:<''''''''''''''''''''''''''''''''''''''''''<:.........+",
"..........(_{''''''''''''''''''''''''''''''''''''{_(...........+",
"............]^/''''''''''''''''''''''''''''''''/^].............+",
"...............)!~={''''''''''''''''''''''{=~!)................+",
"...................@#$%&*=-;>,'',>;-=*&%$#@....................+",
"...............................................................+",
"...............................................................+",
"...............................................................+",
"...............................................................+",
"...............................................................+",
"...............................................................+",
"...............................................................+",
"...............................................................+",
"...............................................................+",
"...............................................................+",
"...............................................................+",
"...............................................................+",
"...............................................................+",
"...............................................................+",
"...............................................................+",
"...............................................................+",
"...............................................................+",
"...............................................................+",
"...............................................................+",
"...............................................................+",
"...............................................................+",
"++++++++++++++++++++++++++++++++++++++++++++++++++++++++++++++++"};
