/* XPM */
static char * floor_xpm[] = {
"64 64 2 1",
" 	c #454545",
".	c #525252",
"                                                               .",
"                                                               .",
"                                                               .",
"                                                               .",
"                                                               .",
"                                                               .",
"                                                               .",
"                                                               .",
"                                                               .",
"                                                               .",
"                                                               .",
"                                                               .",
"                                                               .",
"                                                               .",
"                                                               .",
"                                                               .",
"                                                               .",
"                                                               .",
"                                                               .",
"                                                               .",
"                                                               .",
"                                                               .",
"                                                               .",
"                                                               .",
"                                                               .",
"                                                               .",
"                                                               .",
"                                                               .",
"                                                               .",
"                                                               .",
"                                                               .",
"                                                               .",
"                                                               .",
"                                                               .",
"                                                               .",
"                                                               .",
"                                                               .",
"                                                               .",
"                                                               .",
"                                                               .",
"                                                               .",
"                                                               .",
"                                                               .",
"                                                               .",
"                                                               .",
"                                                               .",
"                                                               .",
"                                                               .",
"                                                               .",
"                                                               .",
"                                                               .",
"                                                               .",
"                                                               .",
"                                                               .",
"                                                               .",
"                                                               .",
"                                                               .",
"                                                               .",
"                                                               .",
"                                                               .",
"                                                               .",
"                                                               .",
"                                                               .",
"................................................................"};
