/* XPM */
static char * wall_xpm[] = {
"64 64 101 2",
"  	c #FFFFFF",
". 	c #FBFBFB",
"+ 	c #F2F2F2",
"@ 	c #E9E9E9",
"# 	c #E5E5E5",
"$ 	c #F9F9F9",
"% 	c #ECECEC",
"& 	c #E1E1E1",
"* 	c #DBDBDB",
"= 	c #F5F5F5",
"- 	c #EBEBEB",
"; 	c #E2E2E2",
"> 	c #D4D4D4",
", 	c #C3C3C3",
"' 	c #C0C0C0",
") 	c #C7C7C7",
"! 	c #CCCCCC",
"~ 	c #CFCFCF",
"{ 	c #CBCBCB",
"] 	c #CECECE",
"^ 	c #D3D3D3",
"/ 	c #D7D7D7",
"( 	c #D8D8D8",
"_ 	c #B4B4B4",
": 	c #F7F7F7",
"< 	c #EDEDED",
"[ 	c #E3E3E3",
"} 	c #F3F3F3",
"| 	c #FDFDFD",
"1 	c #BDBDBD",
"2 	c #F4F4F4",
"3 	c #525252",
"4 	c #DEDEDE",
"5 	c #B0B0B0",
"6 	c #999999",
"7 	c #D0D0D0",
"8 	c #8F8F8F",
"9 	c #BCBCBC",
"0 	c #AAAAAA",
"a 	c #A7A7A7",
"b 	c #A5A5A5",
"c 	c #A2A2A2",
"d 	c #A0A0A0",
"e 	c #8C8C8C",
"f 	c #848484",
"g 	c #838383",
"h 	c #898989",
"i 	c #747474",
"j 	c #B6B6B6",
"k 	c #666666",
"l 	c #686868",
"m 	c #9F9F9F",
"n 	c #717171",
"o 	c #ABABAB",
"p 	c #767676",
"q 	c #C2C2C2",
"r 	c #BEBEBE",
"s 	c #808080",
"t 	c #DCDCDC",
"u 	c #D1D1D1",
"v 	c #E4E4E4",
"w 	c #949494",
"x 	c #D6D6D6",
"y 	c #E6E6E6",
"z 	c #FAFAFA",
"A 	c #909090",
"B 	c #878787",
"C 	c #F6F6F6",
"D 	c #F0F0F0",
"E 	c #9C9C9C",
"F 	c #C1C1C1",
"G 	c #DDDDDD",
"H 	c #CACACA",
"I 	c #F1F1F1",
"J 	c #858585",
"K 	c #868686",
"L 	c #8A8A8A",
"M 	c #EEEEEE",
"N 	c #A6A6A6",
"O 	c #D5D5D5",
"P 	c #EFEFEF",
"Q 	c #EAEAEA",
"R 	c #E8E8E8",
"S 	c #DFDFDF",
"T 	c #B9B9B9",
"U 	c #AEAEAE",
"V 	c #B1B1B1",
"W 	c #B3B3B3",
"X 	c #C4C4C4",
"Y 	c #D2D2D2",
"Z 	c #B8B8B8",
"` 	c #ADADAD",
" .	c #BABABA",
"..	c #8B8B8B",
"+.	c #828282",
"@.	c #7E7E7E",
"#.	c #7C7C7C",
"$.	c #8D8D8D",
"%.	c #8E8E8E",
"&.	c #919191",
"*.	c #989898",
"      . + @ # # # # @ + .   $ % & * * * * & % $                             = - ; ; > , ' ) ! ~ { { { { { ] ^ / ( ( ( ( ( ( _ _ ",
"                                                                                                    : < [ & & & & @ } |     1 1 ",
"2           3                                                                                                               1 1 ",
"4     3         3 3 3                                                                                                       1 1 ",
">     3     3   3                                                                                                         % 5 5 ",
">     3     3     3                                                                                                       ! 6 6 ",
"7     3 3   3   3   3                                                                                                     1 8 8 ",
"9                                                                                                                         1 8 8 ",
"0                                                                                                                         1 8 8 ",
"a                                                                                                                         1 8 8 ",
"a                                                                                                                         1 8 8 ",
"b =                                                                                                                       1 8 8 ",
"c &                                                                                                               3       1 8 8 ",
"d (                                                                                                               3 3     1 8 8 ",
"d (                                                                                                                 3     1 8 8 ",
"d (                                                                                                               3       1 8 e ",
"d (                                                                                                               3 3     1 8 f ",
"d (                                                                                                                       1 8 g ",
"d (                                                                                                                 3     1 8 g ",
"d (                                                                                                                 3     1 8 g ",
"a (                                                                                                                       1 h i ",
"j (                                                                                                                 3     1 f k ",
"1 (                                                                                                               3       ! e l ",
"1 (                                                                                                                       % m n ",
"1 (                                                                                                                         o p ",
"q (                                                                                                               3         o p ",
"{ (                                                                                                               3   3     o p ",
"~ (                                                                                                               3 3 3     r s ",
"~ (                                                                                                                   3     t 8 ",
"u &                                                                                                                   3     v w ",
"x =                                                                                                                         v w ",
"(                                                                                                                 3 3 3     v w ",
"(                                                                                                                     3     v w ",
"(                                                                                                                 3 3 3     v w ",
"y                                                                                                                 3         v w ",
"z                                                                                                                 3 3 3     v w ",
"                                                                                                                            v A ",
"                                                                                                                      3     v B ",
"C                                                                                                                   3       D E ",
"#                                                                                                                 3   3     | F ",
"G                                                                                                                             H ",
"G                                                                                                                           I a ",
"G                                                                                                                           [ J ",
"G                                                                                                                           & K ",
"G                                                                                                                           & L ",
"G                                                                                                                           & L ",
"G                                                                                                                           & L ",
"G                                                                                                                           & L ",
"G                                                                                                                           & L ",
"G                                                                                                                           & L ",
"G                                                                                                                           & L ",
"G   3                                                                                                                       & L ",
"G       3                                                                                                                   & L ",
"G                                                                                                                           & L ",
"G       3                                                                                                                   & L ",
"G     3 3                                                                                                                   & L ",
"#                                                                                                                           & L ",
"C                                                                                                                           & L ",
"                                                                                                                            & L ",
"                                                            3                                         3                     M N ",
"                                                                    3                             3                         | O ",
"              z 2 P P P P P 2 z                                         3                           3                         & ",
"Q Q R [ S G G H T o U V W W X x Q Q Q Q Q Q Q 2                         3 3 3                                 P Y Z ` ` ` ` Z  .",
"6 6 w ..+.@.@.@.@.+...w 6 6 6 8 J #.@.+.f f $._ Q z           $ + % % % % # & 4 ; ; ; ; @ < D ] 3 3 %.%.&.w *.6 6 6 6 6 6 6 6 L "};
