/* XPM */
static char *a5c35806aae34ebceab5dc08597f6a6b990ttW8ST2mDhXEs[] = {
/* columns rows colors chars-per-pixel */
"64 64 85 1 ",
"  c #661400",
". c #681700",
"X c #6B1B02",
"o c #742305",
"O c #782708",
"+ c #77280A",
"@ c #7D2C0D",
"# c #7F2F11",
"$ c #802E0F",
"% c #812F10",
"& c #843314",
"* c #883617",
"= c #863618",
"- c #893718",
"; c #85381A",
": c #8C3B1C",
"> c #903D1F",
", c #8F3E20",
"< c #913F20",
"1 c #8F4022",
"2 c #944324",
"3 c #984627",
"4 c #964729",
"5 c #984728",
"6 c #9B4A2C",
"7 c #9E4E30",
"8 c #9E5032",
"9 c #A04E2F",
"0 c #A14E30",
"q c #A45334",
"w c #A55334",
"e c #A45335",
"r c #A65335",
"t c #A35436",
"y c #A35537",
"u c #A55435",
"i c #A65435",
"p c #A55436",
"a c #A75536",
"s c #A75637",
"d c #A55638",
"f c #A45739",
"g c #A65739",
"h c #A85739",
"j c #A7583A",
"k c #A75A3C",
"l c #AA5839",
"z c #A9593B",
"x c #AC5A3B",
"c c #A95A3C",
"v c #AB5A3C",
"b c #AC5B3C",
"n c #AD5B3C",
"m c #AC5C3E",
"M c #AF5E3F",
"N c #B05E3F",
"B c #AF5E40",
"V c #B05F40",
"C c #B16143",
"Z c #B16244",
"A c #B66345",
"S c #B36446",
"D c #B66546",
"F c #B76647",
"G c #B76648",
"H c #B76749",
"J c #B76A4C",
"K c #B9694B",
"L c #BA694B",
"P c #BC6A4B",
"I c #B86A4C",
"U c #BD6A4C",
"Y c #B96C4E",
"T c #BE6C4E",
"R c #BF6E50",
"E c #C07153",
"W c #C27153",
"Q c #C47355",
"! c #C77556",
"~ c #C87557",
"^ c #C87758",
"/ c #C77A5C",
"( c #C97859",
") c #CB7C5E",
"_ c #B5A39D",
/* pixels */
"________________________________________________________________",
"_K!!^^)!^^WQ!Q^RPKPPWWKEPUTPTm___K!!^()!((W~!!!WPPUUWTKTKTWKWu__",
"IGDYGIIADDDVVVZVCznBmCCmnhxuuuq_YDDYGJKDGGZnmVCNNzmNNZCNnvxquuq_",
"/Juqvvq0hquqqqqquuguszxzxuwwgu5_/Juuzjqquuutuuqwuhzugzzzxuqquw3_",
"Wmq7qqqq7ujuqg0qtgtwjq0qwuuzgj6_Wnq7quqqqujuqg0qugqqju0qqqujmj6_",
"Du6q067q6ttj0000tu9wtq00960qt83_Dg6q699q6ttg6990tqqutq0966quu83_",
"mq6768656q60535669933605334363=_nq6868556868554656655566555565=_",
"x9556566264523366333632363666:&_n6556566265525366556534355655:&_",
"h522<,,<<,:24222532222<<<3<>2-@_h62<,,,,<<:24252422222<<232>2-@_",
"02,:11-:1,&:<41::1:1:,:,:::*::o_02<:11-:2:=:,2,:,1:2:,:,:-:-:-o_",
"6<,=,--:::-&&=-:*---=:::::::-%o_6:<=,:-:::-&&&*:----*:-:,-:--#o_",
"2*#&=:;===&&&&%#&&;&&%&*-===&@o_2-%&;=:&-=&&&&&%&&*&%&==;=-==@o_",
"3$@$&&&&=%@%&&@$&#&@#&#===;=&@X_5%%%&&&==%@%&&@$%%&@#;#=;===&@X_",
"2$+$&&@&@@@@&@@%##&@@;&&&&##&O _2%O%&%$&@@$#&@@&%&&###&#&&#&&oX_",
"@O@OOoooooooooo+++oooo+oo+++oo _@O@OoooOooooooo+o+oooo+oo+++ooX_",
"_ooXXXo    X   X.XX.X    .X  X___oo.oXX         .XXXX   . X   __",
"________________________________________________________________",
"UKUUEUIUKWWDRv___U!~~()!((W~!!~WPPEUEEITUTTURv___J!!^()!!/WW!!(R",
"NhnVVZCNxzxuuu0_KHDYDJJADGSvmCCNNhmVNVCmmvnuuu7_IDDYGJHADGDNNVCB",
"qhhhqvvzzuqquu5_/Iuuzzqquuutuuqwqqqvqhvzzh0qhu5_/Juuzvuquuuquqqq",
"uuqqvq7qqqqgvu6_Wmu6quqqtqjuqj6qqgqqjuqqqqqhkg7_Wmq6quq07ujuug0q",
"uqqqtt06q76qg75_Dg6q606q6gtg600qhq6quq60969qg04_Du6q67qt6tqj9009",
"66955566555465=_vu6q68656866545666655665555362&_mu6q6q5568685356",
"6555533565566:=_n6556566265533366556533565656<&_m655656626542336",
"42222522<2<<2-@_h552,,,,<<:24222552423>222<<2-@_g522<,>>2<:24222",
":2,2::-::::-:;o_02,:1,-:2,=-,21::2:,:::::::-:=o_03,-11-:2:&:<4,:",
"--=-=--,:-::-#o_6::*<:-:,:-==&--*-:*&:::,-:::#o_6>:=,-*::--=&&;-",
"&&=&&&==;=-*&@o_2*%&=;:=&&&&&&&%&&==&&&==&==&@o_3*&&;:;===&&&&&&",
"&$&@#&#&;=;;&@X_5%%%%==&=%@%&&@$&##@%=$&;=;=&@X_3$@$&&&==$@&&&@@",
"@&&#@=&#&&#&&o._2%O@&%%%%@@$&$@&#&##$*&&#&#&&OX_2@+$&&@&@@@@&@@&",
"o+oooo+oo+++oo._@O@OoooOooooooo+o+oOooOoo++Ooo _@O@OooOoooooooo+",
"XXXXX    .....___ooXoXX         XXX X    XX   ___ooXXXo        X",
"________________________________________________________________",
"_K!^^(/Q^(WQ~Q^RWPPPWWKTPEUPRv___J!!^()!((W!!!~WPPPPWTIIPWUKWv__",
"KDGYGIKADGDVNVVVNunCmZCmxhhqtg0_JDDYGJIDDGSnmCCNNvNNVZZnxnxqqh6_",
"/Juqvvqqhququqqquusuuzzzzhwwgw5_/Juuvhqququtuuqquhuuuzvzxqqqsq5_",
"Wmq6quqq7uzqujqqugqqhuqqqqqhkg7_Wnq7qqqqqtjuqj6quhqtjq9qqqujmz6_",
"Dq6t006u6gqg6790hq6qgq60969qg04_Dg6q600q6tqg900qtqqqtqq066qqu84_",
"ng6q68645867435666655566555562*_nq6868556867534666655565555563*_",
"n6555566364523366556533565656<%_n6556566265423356556553455565>&_",
"u622<<,,<<:24242632323<<22,<2-@_h62<,,,,<,:24223422223<223<2>-$_",
"02<:,,-:2>=-,2,::2:,:::::::-:;o_02<:1,-:2,=-,21::1:2:::,:-:-:-o_",
"6<:-,--,::*=&&-:---*=-::,-::-%o_6:,=,:-:::-=&=---:-*=--:,-::-#o_",
"5&%&;:;=*&&&&&&#&&==&&=*=&===@o_2-%&=:;==&&&&&&%&&=&&&==;====@o_",
"5%@$&==&=%@&&=@@&%&@@=%=;=;=&@o_5%%$&&&==%@%&&@$%$&@#&#;====&@X_",
"<%O$#%##$+@$&%@#&##&%=&&#&#&&O _2%O%&%%%%@@$&$@&%&&@@;&##&#&&oX_",
"@@OOOoo+ooooooo+o+oooX+oo++Ooo _@O@Oooooooooooo+o+oooo+oo+++oo _",
"_ooXoXX        X XXXX    XX   ___oo oXo         XXXXX   ..X  X__",
"________________________________________________________________",
"KKUUETGEUUWKWu___IQ^^^)Q^^WQ~Q^WTPUPWRGWWPWIRB___K!!^^)^^^WQ^Q^W",
"VznVCCCNnqxsqs9_IGGIGJJADGSVVCCnNzmNVBCNzhzqqu0_JGDYGJIADDZVVVVV",
"qhqhqzzgzzqqhu3_/Juqvvqquququqqquuguuvvzzuqqgu5_/Juqvvq0gquqqqqq",
"qh0uvqqqqquzzu6_WB070uq07ugtqg0tuuqqzq8qwwwskg6_Wmq6quqq7qvuqh0q",
"qqqqgq00969qh75_Dq70000t6gqg0700gq0qhr969609g74_Du6q670t6ttg0000",
"66655565555563=_nq677765676q555666655566555563*_mu6q6q556q675356",
"7455543555665:=_n7655566265525367555533565665>&_x655656626452336",
"4222232122><2-$_u62<<<,,22:24242452223<222<2<-@_g522<,,<<<:24222",
":1:2::-,,-:*:-o_02<:2<--,:=-12<::1:2:::::::-:;o_02,:11-:2:=:,21:",
"-:--=:::::::-$o_6>:*,;=,:-**&&=----**:::,-:--$o_6<:=,--:::-=&&=:",
"&&=&%&**;===&@o_2*&&=,====&&&=&#&&==&$==-&;==@o_2*&&=:===&&&&&&#",
"%$&@#&#&;=;=&@X_3$@$&&&&=$@&&&@#&##@$&$=;&;;&@X_3@%%&&&&=$@&&&@#",
"%&&#@;&#&&%&&+X_2$+$#&%&$@@@&@@#&#&&$=&&&&#&&OX_2%O$&&@&@@@@&@@&",
"o+oooo+oo+++oo _+@+Oooooooooooo+o+oooo+oo+++oo _@O@OOoooooooooo+",
".XXXX   . X   ___ooXoXo        X XX X    X    ___ooXXXo    X    "
};