/* XPM */
static char *_962529a1b7948bd89b748287abdee1clEGnVzjwraoOe1nB[] = {
/* columns rows colors chars-per-pixel */
"40 40 120 2 ",
"   c #5F5F5F",
".  c #5F615E",
"X  c #60615F",
"o  c #626262",
"O  c #666865",
"+  c #686967",
"@  c #676968",
"#  c #6A6A6A",
"$  c #6F716E",
"%  c #70726F",
"&  c #6F7372",
"*  c #737372",
"=  c #797977",
"-  c #777978",
";  c #7A7B7A",
":  c #7F817E",
">  c #81827F",
",  c #828282",
"<  c #858985",
"1  c #898987",
"2  c #8A8A8A",
"3  c #91918F",
"4  c #939393",
"5  c #999997",
"6  c #9B9B9B",
"7  c #A3A3A3",
"8  c #A9A9A7",
"9  c #A9A9A9",
"0  c #A8AAA9",
"q  c #ABABA9",
"w  c #A9ABAA",
"e  c #AAAAAA",
"r  c gray67",
"t  c #AAACA9",
"y  c #AAACAB",
"u  c #ACACAA",
"i  c #ABADAC",
"p  c #ACACAC",
"a  c #ACACAC",
"s  c #B0B0AE",
"d  c #B1B1AF",
"f  c #B0B2B1",
"g  c #B2B2B0",
"h  c #B3B3B1",
"j  c #B1B3B2",
"k  c #B2B2B2",
"l  c gray70",
"z  c #B2B4B3",
"x  c #B4B4B2",
"c  c #B5B5B3",
"v  c #B3B5B4",
"b  c #B4B4B4",
"n  c #B6B6B6",
"m  c #B3B3B3",
"M  c #BABAB8",
"N  c #BBBBB9",
"B  c #BBBBBB",
"V  c #BABCBB",
"C  c #BCBCBA",
"Z  c #BDBDBB",
"A  c #BCBCBC",
"S  c gray74",
"D  c #BEBEBC",
"F  c gray",
"G  c #BCBCBA",
"H  c #C2C2C0",
"J  c #C3C3C1",
"K  c gray76",
"L  c #C3C3C3",
"P  c #C2C4C1",
"I  c #C3C5C2",
"U  c #C2C4C3",
"Y  c #C4C4C2",
"T  c #C5C5C3",
"R  c #C3C5C4",
"E  c gray77",
"W  c #C5C5C5",
"Q  c #C6C6C4",
"!  c #C6C6C6",
"~  c #C4C4C3",
"^  c #C8CAC7",
"/  c #CACCC7",
"(  c #CBCBC9",
")  c #CBCBCB",
"_  c #CCCCCA",
"`  c #CDCDCB",
"'  c gray80",
"]  c #CECECC",
"[  c #CFCFCD",
"{  c #CECECE",
"}  c #CCCCCB",
"|  c #D2D2D0",
" . c #D3D3D1",
".. c LightGray",
"X. c #D4D4D2",
"o. c #D5D5D3",
"O. c gray83",
"+. c #D6D6D4",
"@. c gray84",
"#. c #D7D7D7",
"$. c #D4D4D3",
"%. c gray86",
"&. c #DCDCDA",
"*. c #DDDDDB",
"=. c gainsboro",
"-. c #DDDDDD",
";. c #DEDEDC",
":. c #DFDFDD",
">. c #DDDDDC",
",. c #E3E3E1",
"<. c #E4E4E2",
"1. c #E5E5E3",
"2. c #E4E4E4",
"3. c #E6E6E4",
"4. c #E7E7E5",
"5. c #E6E6E6",
"6. c #E5E5E5",
"7. c #ECECEA",
"8. c #EDEDEB",
"9. c #EEEEEC",
/* pixels */
"4 4 , & @ # & : , ; , ; * # # 2 4 k E ..X.] T s 5 , * o + # # # o X * ; > 2 4 4 ",
"3 4 > & # # - ; , , , ; - # # , 6 k L ..$._ D q 3 , # # # * * # + X + = > 2 4 5 ",
"5 4 > - # # & : , , , ; ; # # , 6 l ) ..$.} N u 3 = + # * * * * + X # = 1 1 4 6 ",
"6 4 2 : # # & ; - , , ; ; # o , 6 l ) ..$.} C q 3 = o + * > ; * % + o * > 4 6 6 ",
"6 4 2 ; # # & ; ; , , ; ; # # 4 7 B ' o.o.} T u 4 * # * > , , = * # o * , 4 6 7 ",
"7 6 2 ; # # * * - , , ; * # * 2 7 B ..=.&.$.T u 2 # # = , 2 2 , = * o # , 4 6 7 ",
"w 7 4 , *   # * - , , ; * # * 4 r K O.5.1.$.T 7 , o * , 2 4 2 2 , = # # , 4 7 9 ",
"w 7 6 2 ; @ # * ; , , ; * # * 6 r L -.5.1.&.T 7 , # ; , 4 4 4 4 2 = * o ; 4 7 r ",
"f w 6 2 ; # # * ; , , ; * # ; 4 x _ -.,.1.-.L 7 = # ; 2 4 5 6 4 2 , * o ; 6 p b ",
"f w 7 4 ; o # * ; , , ; * # ; 4 g [ ;.8.3.:.W 6 = # = 2 6 A n 6 4 ; *   ; 4 7 k ",
"j 0 7 4 ; o # * - , , - * # , 4 g _ 3.8.8.>.W 6 = # , 1 6 L ! 6 2 , * # ; 4 7 e ",
"f w 7 2 ; o # * ; , , - * # * 4 q T >.1.3.X.S 6 * # , 1 6 ! F 6 4 , * # ; 4 7 e ",
"v j 7 4 - # @ * ; ; ; ; * # * 2 7 d T o._ T p 2 # * , 2 5 b p 4 2 , #   ; 4 7 b ",
"V j 7 4 < & # - ; ; ; ; * # o ; 2 6 u d x q 4 ;   # , 1 4 6 6 4 2 ; * # , 6 p B ",
"U V y 6 2 & o & * ; ; ; * * # # = , 2 3 4 1 = # # = , 2 4 4 4 2 , ; # o , 7 b L ",
"U V v 7 2 & o # * ; ; ; * * # # o o # # # # o # * = , , 2 3 2 2 , * # * 2 7 K L ",
"( K k 7 4 ; o # * ; ; ; ; * * * * * * * * * * ; ; , , , , , , , ; *   ; 4 p B { ",
"! ) B r 4 ; o * * ; ; ; ; ; ; ; = , , , , , , , , , , , , , , , * # # , 6 n L ) ",
"$.( K r 5 , # # * * ; ; ; , , , 1 2 2 4 4 4 4 2 2 2 , , , ; ; ; * # * 2 9 b L O.",
"| | L k 5 , # # * * ; ; ; , , 2 1 4 6 7 p s 6 4 4 2 , , ; ; ; * *   * 2 7 B ) #.",
"*. .Y x 6 , # # * * ; ; ; , , 2 4 4 7 h Z b 7 4 4 2 , , ; ; ; * #   ; 4 7 B ) ..",
" .} C u 6 , # # * * * ; ; , , 2 2 4 4 6 7 6 5 4 2 2 , , ; ; ; * #   * 2 7 b L { ",
"Y N x 7 4 , # # o * * * * ; ; , , 2 2 4 4 4 2 2 2 , , , ; ; ; ; * # # , 4 9 k B ",
"7 7 5 4 , ; #   # # # o * * * ; ; , , , , , , , , , , , ; ; , ; ; * # # , 4 7 7 ",
"1 , , = = * # o o # # # # # # ; * * * * * * ; ; = ; ; , , , , , ; * * # o ; , 4 ",
"    o # # o o o     o # # o o o     o   o o # # # * ; , , , , , , ; ; * # # o o ",
"* * * # # # # o # # * * * * ; ; , , , 2 2 , ; # # * ; , , 2 2 2 2 2 , , ; ; * * ",
"; , = = * # # o * ; * ; , 2 4 6 6 6 9 r r 9 4 , # # * , 2 2 2 4 4 2 2 2 2 2 , , ",
"5 1 1 > = * # # ; , , 2 2 6 7 r b S E W E B r 4 ; # * , 2 4 4 4 4 4 4 4 4 4 4 4 ",
"5 3 1 1 = = # * , 2 2 2 6 9 p A E ' O.=.%.@.B 7 ,   * , 2 4 4 4 4 6 6 7 7 6 6 6 ",
"8 5 3 1 = * # * , 2 2 4 6 7 l E ' ..%.2.5.@.E r 2   * , 2 4 4 4 4 6 7 7 r r p r ",
"8 5 3 1 > * # * , 2 2 4 6 7 l A ' ..-.2.5.-.E 9 2 # * , 2 4 4 4 4 4 6 6 6 6 6 7 ",
"3 3 1 1 ; * # # ; , , , 3 6 s c H X.*.1.6.-.{ p 1 # * = 2 2 2 5 4 4 4 4 5 4 4 5 ",
"1 1 1 > ; * # + + * * ; , 4 7 a N _  .&.6.-.! p 1 * # = , 2 2 2 2 2 2 1 2 2 2 2 ",
"> > 1 = * * # #   o # * ; 2 6 7 x T  .&.-.O.L r 4 * # * , 2 1 2 2 , , , , , , , ",
"% = % * * = # + # # # o # = 2 6 d H ( &.-.+.! p 3 ; o * ; , , , , = ; = ; ; * * ",
"+ + + + + * * * * * * # o * , 6 e B _ +...{ ! p 6 , o # * = ; ; ; * * * # # # # ",
"% % + X + + * = ; ; = * # o ; 4 7 k T  .O.{ E l 6 , # # * * * * * * # # o # * * ",
"> > = + o + * = ; = = ; * # = 2 7 k ! ) ..) E k 6 2 * # # * * * # # o # * ; , 2 ",
"5 1 1 = X + * = ; , , = * # * 2 6 k E ....) E l 6 1 *   # * * # # o # ; , 2 4 4 "
};
